
<svg width="20" height="20" viewBox="0 0 20 20" fill="none" xmlns="http://www.w3.org/2000/svg">
<path fill-rule="evenodd" clip-rule="evenodd" d="M5.83154 13.3837C5.65637 13.5562 5.625 13.6794 5.625 13.7493C5.625 13.8193 5.65637 13.9425 5.83154 14.115C6.00891 14.2898 6.29764 14.4759 6.70485 14.6456C7.51653 14.9838 8.68118 15.2077 10 15.2077C11.3188 15.2077 12.4835 14.9838 13.2951 14.6456C13.7024 14.4759 13.9911 14.2898 14.1685 14.115C14.3436 13.9425 14.375 13.8193 14.375 13.7493C14.375 13.6794 14.3436 13.5562 14.1685 13.3837C13.9911 13.2089 13.7024 13.0228 13.2951 12.8531C12.4835 12.5149 11.3188 12.291 10 12.291C8.68118 12.291 7.51653 12.5149 6.70485 12.8531C6.29764 13.0228 6.00891 13.2089 5.83154 13.3837ZM6.22408 11.6993C7.22204 11.2835 8.55739 11.041 10 11.041C11.4426 11.041 12.778 11.2835 13.7759 11.6993C14.2735 11.9066 14.717 12.1694 15.0457 12.4932C15.3765 12.8191 15.625 13.244 15.625 13.7493C15.625 14.2547 15.3765 14.6796 15.0457 15.0055C14.717 15.3293 14.2735 15.5921 13.7759 15.7994C12.778 16.2152 11.4426 16.4577 10 16.4577C8.55739 16.4577 7.22204 16.2152 6.22408 15.7994C5.72647 15.5921 5.28296 15.3293 4.95431 15.0055C4.62346 14.6796 4.375 14.2547 4.375 13.7493C4.375 13.244 4.62346 12.8191 4.95431 12.4932C5.28296 12.1694 5.72647 11.9066 6.22408 11.6993Z" fill="#1F2937"/>
<path fill-rule="evenodd" clip-rule="evenodd" d="M10 4.79102C8.96447 4.79102 8.125 5.63048 8.125 6.66602C8.125 7.70155 8.96447 8.54102 10 8.54102C11.0355 8.54102 11.875 7.70155 11.875 6.66602C11.875 5.63048 11.0355 4.79102 10 4.79102ZM6.875 6.66602C6.875 4.94013 8.27411 3.54102 10 3.54102C11.7259 3.54102 13.125 4.94013 13.125 6.66602C13.125 8.39191 11.7259 9.79102 10 9.79102C8.27411 9.79102 6.875 8.39191 6.875 6.66602Z" fill="#1F2937"/>
<path fill-rule="evenodd" clip-rule="evenodd" d="M5.62892 10.918C4.48493 10.9386 3.42303 11.1321 2.60859 11.4579C2.17929 11.6296 1.78154 11.8529 1.47885 12.1391C1.17458 12.4269 0.916748 12.83 0.916748 13.3328C0.916748 13.8356 1.17458 14.2387 1.47885 14.5265C1.78154 14.8127 2.17929 15.0359 2.60859 15.2077C3.0782 15.3955 3.63009 15.5394 4.23255 15.6315C3.69702 15.1133 3.37585 14.5164 3.33733 13.8792C3.27801 13.8584 3.22076 13.837 3.16568 13.8149C2.84096 13.6851 2.62852 13.5492 2.50952 13.4366C2.45658 13.3866 2.43252 13.3519 2.42206 13.3328C2.43252 13.3137 2.45658 13.279 2.50952 13.229C2.62852 13.1164 2.84096 12.9805 3.16568 12.8506C3.29722 12.798 3.44113 12.7488 3.59605 12.7038C3.95765 12.0019 4.67407 11.3848 5.62892 10.918ZM2.41462 13.3503C2.4145 13.3503 2.41474 13.3489 2.41574 13.3462C2.41526 13.3489 2.41475 13.3503 2.41462 13.3503ZM2.41574 13.3194C2.41474 13.3167 2.4145 13.3153 2.41462 13.3153C2.41475 13.3153 2.41526 13.3167 2.41574 13.3194Z" fill="#1F2937"/>
<path fill-rule="evenodd" clip-rule="evenodd" d="M16.6627 13.8792C16.6242 14.5164 16.303 15.1134 15.7675 15.6315C16.3699 15.5394 16.9218 15.3955 17.3914 15.2077C17.8207 15.0359 18.2185 14.8127 18.5212 14.5265C18.8254 14.2387 19.0833 13.8356 19.0833 13.3328C19.0833 12.83 18.8254 12.4269 18.5212 12.1391C18.2185 11.8529 17.8207 11.6296 17.3914 11.4579C16.577 11.1321 15.5151 10.9386 14.3711 10.918C15.3259 11.3848 16.0424 12.0019 16.404 12.7038C16.5589 12.7488 16.7028 12.798 16.8343 12.8506C17.159 12.9805 17.3715 13.1164 17.4905 13.229C17.5434 13.279 17.5675 13.3137 17.578 13.3328C17.5675 13.3519 17.5434 13.3866 17.4905 13.4366C17.3715 13.5492 17.159 13.6851 16.8343 13.8149C16.7793 13.837 16.722 13.8584 16.6627 13.8792ZM17.5854 13.3503C17.5853 13.3503 17.5848 13.3489 17.5843 13.3462C17.5853 13.3489 17.5855 13.3503 17.5854 13.3503ZM17.5843 13.3194C17.5848 13.3167 17.5853 13.3153 17.5854 13.3153C17.5855 13.3153 17.5853 13.3167 17.5843 13.3194Z" fill="#1F2937"/>
<path fill-rule="evenodd" clip-rule="evenodd" d="M13.8143 8.34711C13.6079 8.81512 13.3178 9.23797 12.9631 9.59673C13.3175 9.80067 13.7285 9.91732 14.1668 9.91732C15.5014 9.91732 16.5834 8.83534 16.5834 7.50065C16.5834 6.16596 15.5014 5.08398 14.1668 5.08398C14.0639 5.08398 13.9626 5.09041 13.8631 5.10288C14.0491 5.56161 14.1557 6.06099 14.1659 6.58398C14.1662 6.58398 14.1665 6.58398 14.1668 6.58398C14.673 6.58398 15.0834 6.99439 15.0834 7.50065C15.0834 8.00691 14.673 8.41732 14.1668 8.41732C14.0419 8.41732 13.9228 8.39234 13.8143 8.34711Z" fill="#1F2937"/>
<path fill-rule="evenodd" clip-rule="evenodd" d="M6.13707 5.10288C6.03761 5.09041 5.93626 5.08398 5.83341 5.08398C4.49873 5.08398 3.41675 6.16596 3.41675 7.50065C3.41675 8.83534 4.49873 9.91732 5.83341 9.91732C6.27165 9.91732 6.68264 9.80067 7.03703 9.59673C6.68232 9.23797 6.39229 8.81512 6.18588 8.34711C6.07737 8.39234 5.95831 8.41732 5.83341 8.41732C5.32715 8.41732 4.91675 8.00691 4.91675 7.50065C4.91675 6.99439 5.32715 6.58398 5.83341 6.58398C5.83369 6.58398 5.83396 6.58398 5.83423 6.58398C5.84449 6.06099 5.95111 5.56161 6.13707 5.10288Z" fill="#1F2937"/>
</svg>
