
<svg width="20" height="20" viewBox="0 0 20 20" fill="none" xmlns="http://www.w3.org/2000/svg">
<path fill-rule="evenodd" clip-rule="evenodd" d="M7.25377 4.66732C7.25377 3.55162 8.20188 2.70898 9.29292 2.70898H10.7071C11.7981 2.70898 12.7462 3.55162 12.7462 4.66732C12.7462 5.03582 13.1405 5.2701 13.4641 5.09392L13.5393 5.053C14.4938 4.53342 15.7303 4.82845 16.3029 5.76359L17.01 6.91829C17.597 7.87688 17.2321 9.08479 16.2582 9.61498C15.9526 9.78131 15.9526 10.22 16.2582 10.3863C17.2321 10.9165 17.597 12.1244 17.01 13.083L16.3029 14.2377C15.7303 15.1729 14.4938 15.4679 13.5393 14.9483L13.4641 14.9074C13.1405 14.7312 12.7462 14.9655 12.7462 15.334C12.7462 16.4497 11.7981 17.2923 10.7071 17.2923H9.29292C8.20189 17.2923 7.25377 16.4497 7.25377 15.334C7.25377 14.9655 6.8595 14.7312 6.53584 14.9074L6.46067 14.9483C5.50619 15.4679 4.26971 15.1729 3.69708 14.2377L2.99001 13.083C2.40302 12.1244 2.76784 10.9165 3.74181 10.3863C4.04738 10.22 4.04738 9.7813 3.74182 9.61497C2.76784 9.08478 2.40302 7.87687 2.99001 6.91828L3.69708 5.76358C4.26971 4.82844 5.50619 4.53342 6.46067 5.05299L6.53585 5.09391C6.8595 5.27009 7.25377 5.03581 7.25377 4.66732ZM9.29292 3.95898C8.82192 3.95898 8.50377 4.31026 8.50377 4.66732C8.50377 5.98417 7.0948 6.82139 5.93821 6.19179L5.86303 6.15087C5.46476 5.93406 4.97149 6.07604 4.7631 6.41635L4.05603 7.57105C3.86201 7.8879 3.96067 8.3109 4.33945 8.51709C5.51484 9.15692 5.51483 10.8444 4.33945 11.4842C3.96067 11.6904 3.862 12.1134 4.05603 12.4303L4.7631 13.585C4.97149 13.9253 5.46476 14.0672 5.86303 13.8504L5.93821 13.8095C7.0948 13.1799 8.50377 14.0171 8.50377 15.334C8.50377 15.691 8.82192 16.0423 9.29292 16.0423H10.7071C11.1781 16.0423 11.4962 15.691 11.4962 15.334C11.4962 14.0171 12.9052 13.1799 14.0618 13.8095L14.1369 13.8504C14.5352 14.0672 15.0285 13.9253 15.2369 13.5849L15.944 12.4302C16.138 12.1134 16.0393 11.6904 15.6605 11.4842C14.4852 10.8444 14.4852 9.15693 15.6605 8.5171C16.0393 8.31091 16.138 7.88791 15.944 7.57106L15.2369 6.41636C15.0285 6.07605 14.5352 5.93407 14.1369 6.15088L14.0618 6.19179C12.9052 6.8214 11.4962 5.98418 11.4962 4.66732C11.4962 4.31026 11.1781 3.95898 10.7071 3.95898H9.29292Z" fill="#1F2937"/>
<path fill-rule="evenodd" clip-rule="evenodd" d="M10 8.125C8.96447 8.125 8.125 8.96447 8.125 10C8.125 11.0355 8.96447 11.875 10 11.875C11.0355 11.875 11.875 11.0355 11.875 10C11.875 8.96447 11.0355 8.125 10 8.125ZM6.875 10C6.875 8.27411 8.27411 6.875 10 6.875C11.7259 6.875 13.125 8.27411 13.125 10C13.125 11.7259 11.7259 13.125 10 13.125C8.27411 13.125 6.875 11.7259 6.875 10Z" fill="#1F2937"/>
</svg>
