
<svg width="20" height="20" viewBox="0 0 20 20" fill="none" xmlns="http://www.w3.org/2000/svg">
<path d="M12.5001 10.0007C12.5001 8.61994 11.3808 7.50065 10.0001 7.50065C8.61937 7.50065 7.50009 8.61994 7.50009 10.0007C7.50009 11.3814 8.61937 12.5007 10.0001 12.5007C11.3808 12.5007 12.5001 11.3814 12.5001 10.0007Z" fill="#1F2937"/>
<path fill-rule="evenodd" clip-rule="evenodd" d="M14.5059 2.95135C14.7173 2.67843 15.1098 2.62852 15.3828 2.83986C16.4823 3.69129 17.3745 4.77154 17.9934 6.00294C18.6123 7.23442 18.942 8.58553 18.9578 9.95794C18.9736 11.3304 18.6751 12.6884 18.0846 13.9332C17.4942 15.1779 16.627 16.2775 15.5473 17.1529C15.2791 17.3702 14.8855 17.3291 14.6682 17.0609C14.4508 16.7928 14.4919 16.3992 14.7601 16.1818C15.6964 15.4228 16.4459 14.4714 16.9553 13.3975C17.4646 12.3236 17.7215 11.1537 17.7079 9.97234C17.6943 8.79103 17.4105 7.62686 16.8765 6.56428C16.3424 5.50163 15.5711 4.56667 14.6174 3.82817C14.3445 3.61683 14.2946 3.22426 14.5059 2.95135Z" fill="#1F2937"/>
<path fill-rule="evenodd" clip-rule="evenodd" d="M5.49424 2.95135C5.2829 2.67843 4.89033 2.62852 4.61742 2.83986C3.51791 3.69129 2.62571 4.77154 2.00681 6.00294C1.38788 7.23442 1.05815 8.58553 1.04234 9.95794C1.02654 11.3304 1.32506 12.6884 1.91553 13.9332C2.50597 15.1779 3.37316 16.2775 4.45292 17.1529C4.72105 17.3702 5.11464 17.3291 5.33201 17.0609C5.54938 16.7928 5.50822 16.3992 5.24009 16.1818C4.30381 15.4228 3.55432 14.4714 3.04491 13.3975C2.53553 12.3236 2.27866 11.1537 2.29226 9.97234C2.30587 8.79103 2.58963 7.62686 3.12368 6.56428C3.65777 5.50163 4.42908 4.56667 5.38275 3.82817C5.65566 3.61683 5.70558 3.22426 5.49424 2.95135Z" fill="#1F2937"/>
<path fill-rule="evenodd" clip-rule="evenodd" d="M10.013 12.4994C10.3582 12.4994 10.625 12.4245 10.625 12.4245V16.8024C10.625 17.0723 10.3452 17.291 10 17.291C9.65482 17.291 9.375 17.0723 9.375 16.8024V12.4245C9.375 12.4245 9.66785 12.4994 10.013 12.4994Z" fill="#1F2937"/>
<path fill-rule="evenodd" clip-rule="evenodd" d="M12.8409 6.28113C13.0535 6.00918 13.4463 5.96105 13.7182 6.17363C14.3042 6.63165 14.78 7.20906 15.1102 7.86628C15.4405 8.52361 15.6165 9.24382 15.6247 9.9757C15.6329 10.7076 15.473 11.4314 15.1574 12.0955C14.8418 12.7595 14.3789 13.3468 13.8031 13.8168C13.5357 14.0351 13.142 13.9954 12.9237 13.728C12.7054 13.4606 12.7452 13.0669 13.0125 12.8486C13.4476 12.4934 13.7937 12.0527 14.0284 11.559C14.2629 11.0654 14.3808 10.5297 14.3748 9.98967C14.3688 9.4496 14.2389 8.91638 13.9933 8.42747C13.7476 7.93845 13.3915 7.5048 12.9484 7.15845C12.6765 6.94587 12.6283 6.55308 12.8409 6.28113Z" fill="#1F2937"/>
<path fill-rule="evenodd" clip-rule="evenodd" d="M7.15908 6.28113C6.9465 6.00918 6.55371 5.96105 6.28176 6.17363C5.69582 6.63165 5.22 7.20906 4.88979 7.86628C4.55952 8.52361 4.38347 9.24382 4.3753 9.9757C4.36712 10.7076 4.52704 11.4314 4.84264 12.0955C5.15819 12.7595 5.62115 13.3468 6.19692 13.8168C6.4643 14.0351 6.85803 13.9954 7.07633 13.728C7.29463 13.4606 7.25484 13.0669 6.98746 12.8486C6.55243 12.4934 6.20628 12.0527 5.97165 11.559C5.73708 11.0654 5.61919 10.5297 5.62522 9.98967C5.63125 9.4496 5.76109 8.91638 6.00673 8.42747C6.25244 7.93845 6.60851 7.5048 7.05158 7.15845C7.32353 6.94587 7.37166 6.55308 7.15908 6.28113Z" fill="#1F2937"/>
</svg>
